<?xml version="1.0" encoding="UTF-8" standalone="no"?>
<!-- Created with Inkscape (http://www.inkscape.org/) -->

<svg
   xmlns:dc="http://purl.org/dc/elements/1.1/"
   xmlns:cc="http://creativecommons.org/ns#"
   xmlns:rdf="http://www.w3.org/1999/02/22-rdf-syntax-ns#"
   xmlns:svg="http://www.w3.org/2000/svg"
   xmlns="http://www.w3.org/2000/svg"
   xmlns:sodipodi="http://sodipodi.sourceforge.net/DTD/sodipodi-0.dtd"
   xmlns:inkscape="http://www.inkscape.org/namespaces/inkscape"
   version="1.1"
   id="svg2"
   xml:space="preserve"
   width="11in"
   height="8.5in"
   viewBox="0 0 1056 816"
   sodipodi:docname="midfield-grad.svg"
   inkscape:version="0.92.3 (2405546, 2018-03-11)"
   style="shape-rendering:crispEdges"><metadata
     id="metadata8"><rdf:RDF><cc:Work
         rdf:about=""><dc:format>image/svg+xml</dc:format><dc:type
           rdf:resource="http://purl.org/dc/dcmitype/StillImage" /><dc:title></dc:title></cc:Work></rdf:RDF></metadata><defs
     id="defs6"><linearGradient
       x1="0"
       y1="0"
       x2="1"
       y2="0"
       gradientUnits="userSpaceOnUse"
       gradientTransform="matrix(17.037109,0,0,-17.037109,544.95605,338.41992)"
       spreadMethod="pad"
       id="linearGradient140"><stop
         style="stop-opacity:1;stop-color:#fff7b2"
         offset="0"
         id="stop134" /><stop
         style="stop-opacity:1;stop-color:#de0000"
         offset="0.935135"
         id="stop136" /><stop
         style="stop-opacity:1;stop-color:#de0000"
         offset="1"
         id="stop138" /></linearGradient><linearGradient
       x1="0"
       y1="0"
       x2="1"
       y2="0"
       gradientUnits="userSpaceOnUse"
       gradientTransform="matrix(30.066406,0,0,-30.066406,552.4541,322.27979)"
       spreadMethod="pad"
       id="linearGradient162"><stop
         style="stop-opacity:1;stop-color:#fff7b2"
         offset="0"
         id="stop156" /><stop
         style="stop-opacity:1;stop-color:#de0000"
         offset="0.935135"
         id="stop158" /><stop
         style="stop-opacity:1;stop-color:#de0000"
         offset="1"
         id="stop160" /></linearGradient><linearGradient
       x1="0"
       y1="0"
       x2="1"
       y2="0"
       gradientUnits="userSpaceOnUse"
       gradientTransform="matrix(32.855469,0,0,-32.855469,520.48047,299.85059)"
       spreadMethod="pad"
       id="linearGradient184"><stop
         style="stop-opacity:1;stop-color:#fff7b2"
         offset="0"
         id="stop178" /><stop
         style="stop-opacity:1;stop-color:#de0000"
         offset="0.935135"
         id="stop180" /><stop
         style="stop-opacity:1;stop-color:#de0000"
         offset="1"
         id="stop182" /></linearGradient><linearGradient
       x1="0"
       y1="0"
       x2="1"
       y2="0"
       gradientUnits="userSpaceOnUse"
       gradientTransform="matrix(16.763672,0,0,-16.763672,549.4248,296.35156)"
       spreadMethod="pad"
       id="linearGradient206"><stop
         style="stop-opacity:1;stop-color:#fff7b2"
         offset="0"
         id="stop200" /><stop
         style="stop-opacity:1;stop-color:#de0000"
         offset="0.935135"
         id="stop202" /><stop
         style="stop-opacity:1;stop-color:#de0000"
         offset="1"
         id="stop204" /></linearGradient><linearGradient
       x1="0"
       y1="0"
       x2="1"
       y2="0"
       gradientUnits="userSpaceOnUse"
       gradientTransform="matrix(33.366085,-4.1661372,-4.1661372,-33.366085,529.00195,317.6416)"
       spreadMethod="pad"
       id="linearGradient236"><stop
         style="stop-opacity:1;stop-color:#0c110f"
         offset="0"
         id="stop222" /><stop
         style="stop-opacity:1;stop-color:#0c110f"
         offset="0.097297"
         id="stop224" /><stop
         style="stop-opacity:1;stop-color:#0c110f"
         offset="0.52923653"
         id="stop226" /><stop
         style="stop-opacity:1;stop-color:#fffefa"
         offset="0.637838"
         id="stop228" /><stop
         style="stop-opacity:1;stop-color:#787b7e"
         offset="0.71475608"
         id="stop230" /><stop
         style="stop-opacity:1;stop-color:#787b7e"
         offset="0.924324"
         id="stop232" /><stop
         style="stop-opacity:1;stop-color:#787b7e"
         offset="1"
         id="stop234" /></linearGradient><linearGradient
       x1="0"
       y1="0"
       x2="1"
       y2="0"
       gradientUnits="userSpaceOnUse"
       gradientTransform="matrix(30.033203,0,0,-30.033203,527.76953,322.89941)"
       spreadMethod="pad"
       id="linearGradient258"><stop
         style="stop-opacity:1;stop-color:#fff7b2"
         offset="0"
         id="stop252" /><stop
         style="stop-opacity:1;stop-color:#de0000"
         offset="0.935135"
         id="stop254" /><stop
         style="stop-opacity:1;stop-color:#de0000"
         offset="1"
         id="stop256" /></linearGradient><linearGradient
       x1="0"
       y1="0"
       x2="1"
       y2="0"
       gradientUnits="userSpaceOnUse"
       gradientTransform="matrix(17.373047,0,0,-17.373047,540.27832,346.46973)"
       spreadMethod="pad"
       id="linearGradient280"><stop
         style="stop-opacity:1;stop-color:#0c110f"
         offset="0"
         id="stop274" /><stop
         style="stop-opacity:1;stop-color:#0c110f"
         offset="0.46861931"
         id="stop276" /><stop
         style="stop-opacity:1;stop-color:#9ea0a0"
         offset="1"
         id="stop278" /></linearGradient><clipPath
       clipPathUnits="userSpaceOnUse"
       id="clipPath290"><path
         d="M 0,612 H 792 V 0 H 0 Z"
         id="path288"
         inkscape:connector-curvature="0" /></clipPath></defs><sodipodi:namedview
     pagecolor="#ffffff"
     bordercolor="#666666"
     borderopacity="1"
     objecttolerance="10"
     gridtolerance="10"
     guidetolerance="10"
     inkscape:pageopacity="0"
     inkscape:pageshadow="2"
     inkscape:window-width="2592"
     inkscape:window-height="1779"
     id="namedview4"
     showgrid="false"
     inkscape:zoom="1.8200758"
     inkscape:cx="528"
     inkscape:cy="408"
     inkscape:window-x="-13"
     inkscape:window-y="-13"
     inkscape:window-maximized="1"
     inkscape:current-layer="g286"
     units="in" /><g
     id="g10"
     inkscape:groupmode="layer"
     inkscape:label="Midfieldfinal"
     transform="matrix(1.3333333,0,0,-1.3333333,0,816)"><g
       clip-path="url(#clipPath290)"
       id="g286"><g
         id="g5635"
         inkscape:export-xdpi="1199.9818"
         inkscape:export-ydpi="1199.9818"><g
           id="g5070"><g
             id="g122"><g
               id="g124"><g
                 id="g130"><g
                   id="g132"><path
                     d="m 544.956,338.42 c 0,-4.705 3.814,-8.52 8.519,-8.52 v 0 c 4.705,0 8.518,3.815 8.518,8.52 v 0 c 0,4.705 -3.813,8.519 -8.518,8.519 v 0 c -4.705,0 -8.519,-3.814 -8.519,-8.519"
                     style="fill:url(#linearGradient140);stroke:none"
                     id="path142"
                     inkscape:connector-curvature="0" /></g></g></g></g><g
             id="g144"><g
               id="g146"><g
                 id="g152"><g
                   id="g154"><path
                     d="m 552.454,323.545 c 23.082,-20.511 30.067,4.285 30.067,4.285 v 0 c -7.523,-8.08 -15.49,-7.258 -22.887,1.309 v 0 z"
                     style="fill:url(#linearGradient162);stroke:none"
                     id="path164"
                     inkscape:connector-curvature="0" /></g></g></g></g><g
             id="g166"><g
               id="g168"><g
                 id="g174"><g
                   id="g176"><path
                     d="m 542.902,307.741 c 17.009,-6.583 -45.652,-22.063 -12.669,-16.602 v 0 c 32.982,5.462 20.969,18.568 20.969,18.568 v 0 z"
                     style="fill:url(#linearGradient184);stroke:none"
                     id="path186"
                     inkscape:connector-curvature="0" /></g></g></g></g><g
             id="g188"><g
               id="g190"><g
                 id="g196"><g
                   id="g198"><path
                     d="m 554.697,306.868 c 15.946,-13.981 -9.752,-27.286 -4.569,-24.765 v 0 c 30.141,14.67 8.61,28.806 8.61,28.806 v 0 z"
                     style="fill:url(#linearGradient206);stroke:none"
                     id="path208"
                     inkscape:connector-curvature="0" /></g></g></g></g><g
             id="g210"><g
               id="g212"><g
                 id="g218"><g
                   id="g220"><path
                     d="m 529.542,321.972 5.196,-22.036 29.718,30.27 z m 6.341,-2.757 14.318,3.375 L 538.292,309 Z"
                     style="fill:url(#linearGradient236);stroke:none"
                     id="path238"
                     inkscape:connector-curvature="0" /></g></g></g></g><g
             id="g240"><g
               id="g242"><g
                 id="g248"><g
                   id="g250"><path
                     d="m 539.495,313.082 c 30.144,3.494 13.98,3.494 13.98,3.494 v 0 c 0,0 -31.673,-3.056 -1.852,13.53 v 0 l -4.778,2.965 c 0,0 -37.494,-23.485 -7.35,-19.989"
                     style="fill:url(#linearGradient258);stroke:none"
                     id="path260"
                     inkscape:connector-curvature="0" /></g></g></g></g><g
             id="g262"><g
               id="g264"><g
                 id="g270"><g
                   id="g272"><path
                     d="m 547.867,345.829 c -2.808,-1.234 -7.589,0.444 -7.589,0.444 v 0 l 3.53,-6.306 c 0.452,1.731 9.075,-0.06 9.075,-0.06 v 0 c 1.508,5.769 4.769,6.456 4.769,6.456 v 0 l -3.743,6.67 c -1.019,-3.894 -4.305,-6.439 -6.042,-7.204"
                     style="fill:url(#linearGradient280);stroke:none"
                     id="path282"
                     inkscape:connector-curvature="0" /></g></g></g></g><g
             transform="translate(558.1865,355.8984)"
             id="g292"><path
               inkscape:connector-curvature="0"
               id="path294"
               style="fill:#0c110f;fill-opacity:1;fill-rule:nonzero;stroke:none"
               d="m 0,0 c 0,0 -8.318,-11.939 -8.661,-11.91 -0.343,0.027 -14.673,1.667 -14.673,1.667 l 10.069,10.782 z" /></g><g
             transform="translate(546.6279,351.6699)"
             id="g296"><path
               inkscape:connector-curvature="0"
               id="path298"
               style="fill:#fff100;fill-opacity:1;fill-rule:nonzero;stroke:none"
               d="m 0,0 c -0.433,0.113 -0.989,-0.182 -1.366,-0.356 -0.636,-0.297 -1.245,-0.658 -1.84,-1.027 -1.537,-0.953 -2.979,-2.025 -3.871,-3.64 -0.185,-0.332 -0.34,-0.684 -0.435,-1.051 -0.483,-1.848 3.105,-7.17 2.787,-8.383 -0.015,-0.058 0.14,0.537 0.14,0.537 l 0.542,-0.413 -0.361,0.618 c -0.008,0.016 -0.016,0.031 -0.022,0.049 -0.287,0.67 -0.567,1.344 -0.84,2.02 -0.435,1.072 -0.857,2.152 -1.226,3.25 -0.149,0.441 -0.294,0.888 -0.398,1.341 -0.102,0.451 -0.178,0.762 -0.08,1.222 0.089,0.413 0.857,1.524 1.12,1.845 0.588,0.717 1.328,1.309 2.073,1.855 1.375,1.008 2.312,1.36 3.852,1.944" /></g></g><g
           id="g314"
           transform="translate(506.3477,368.2695)" /></g></g></g></svg>